<svg width="100" height="100" viewBox="0 0 100 100" xmlns="http://www.w3.org/2000/svg"><title>design-categories-illustration-design</title><g fill="none" fill-rule="evenodd"><path fill="#F5F5F5" d="M43.083 64.326l-10.637 2.94 2.901-10.784 40.788-41.354H10V90h73.846V22.997z"/><path d="M84.846 20.559V91H9V14.128h69.526L36.244 56.997l-2.377 8.84 8.692-2.404L84.846 20.56zm-2 4.876L43.607 65.218l-12.58 3.479 3.423-12.729 39.294-39.84H11V89h71.846V25.435z" fill="#5D6D81" fill-rule="nonzero"/><path d="M48.264 78.027v-2.429c1.732 0 3.438-.19 5.098-.565l.534 2.37c-1.835.413-3.72.624-5.632.624zm11.054-2.514l-1.054-2.188a23.086 23.086 0 0 0 4.343-2.725l1.511 1.901a25.514 25.514 0 0 1-4.8 3.012zm8.864-7.06l-1.896-1.518a23.09 23.09 0 0 0 2.742-4.334l2.184 1.062a25.518 25.518 0 0 1-3.03 4.79zm4.91-10.08l-2.364-.555a23.13 23.13 0 0 0 .61-5.092l2.428.02a25.559 25.559 0 0 1-.673 5.627zm.08-11.345l-2.371.521a22.894 22.894 0 0 0-1.653-4.851l2.197-1.036a25.323 25.323 0 0 1 1.828 5.366zM68.345 36.8l-1.911 1.499a23.22 23.22 0 0 0-3.592-3.662l1.535-1.882a25.649 25.649 0 0 1 3.968 4.045zm-8.972-7.239l-1.059 2.186a22.897 22.897 0 0 0-4.834-1.705l.547-2.367a25.325 25.325 0 0 1 5.346 1.886zm-10.829-2.538l-.026 2.428h-.247c-1.653 0-3.277.171-4.86.51l-.509-2.375a25.614 25.614 0 0 1 5.37-.565l.272.002zm-11.08 2.392l1.03 2.2a23.074 23.074 0 0 0-4.373 2.677l-1.49-1.918a25.503 25.503 0 0 1 4.834-2.96zm-8.94 6.963l1.878 1.539a23.1 23.1 0 0 0-2.789 4.303l-2.172-1.086a25.53 25.53 0 0 1 3.082-4.756zM23.5 46.406l2.358.581a23.1 23.1 0 0 0-.664 5.085l-2.428-.047c.037-1.91.284-3.791.734-5.619zm-.202 11.348l2.378-.496a22.892 22.892 0 0 0 1.601 4.87L25.07 63.14a25.321 25.321 0 0 1-1.77-5.386zm4.716 10.275l1.927-1.478a23.219 23.219 0 0 0 3.552 3.7l-1.556 1.866a25.648 25.648 0 0 1-3.923-4.088zM36.9 75.36l1.083-2.174a22.9 22.9 0 0 0 4.815 1.76l-.574 2.36A25.33 25.33 0 0 1 36.9 75.36zm10.808 2.66l.052-2.428c.164.003.33.005.495.005l-.001 2.429c-.182 0-.365-.002-.546-.006zM65.07 48.928c.204-.028.4.111.445.32a.418.418 0 0 1-.269.488c-2.483.83-9.162 3.425-10.23 5.421-1.123 2.096 1.902 7.732 3.163 9.727.12.19.07.443-.11.57a.395.395 0 0 1-.556-.1c-.042-.06-4.234-6.016-8.261-5.603-2.344.239-6.44 6.11-7.821 8.351a.4.4 0 0 1-.341.193.39.39 0 0 1-.197-.052.423.423 0 0 1-.166-.546c.947-2.009 3.097-7.624 1.69-9.455-3.014-3.921-10.293-1.74-10.366-1.718a.402.402 0 0 1-.5-.274.419.419 0 0 1 .257-.52c2.13-.73 7.735-3.041 8.345-5.028-.216-3.786-5.187-8.086-5.237-8.13a.425.425 0 0 1-.058-.58.395.395 0 0 1 .561-.07c.064.051 6.428 5.035 10.963 3.526 5.01-1.667 7.398-8.762 7.421-8.834a.402.402 0 0 1 .487-.268.417.417 0 0 1 .291.483c-.017.087-1.654 8.718.486 11.564.932 1.24 6.63.986 10.003.535zm-4.483-7.031a3.043 3.043 0 1 1-3.314 5.105 3.043 3.043 0 0 1 3.314-5.105zm-23.5 5.966a2.278 2.278 0 0 1 .67 3.156 2.277 2.277 0 0 1-3.155.672 2.28 2.28 0 0 1-.671-3.157 2.28 2.28 0 0 1 3.157-.671zm2.146 10.147c.94.685 1.207 2.098.597 3.157-.611 1.059-1.867 1.358-2.808.671-.94-.687-1.206-2.099-.596-3.156.61-1.059 1.866-1.36 2.807-.672zm12.451 4.606a2.536 2.536 0 1 1-2.76 4.255 2.536 2.536 0 0 1 2.76-4.255zm8.627-8.118a2.536 2.536 0 1 1-2.762 4.256 2.536 2.536 0 1 1 2.762-4.256zm-12.917-16.66a3.043 3.043 0 1 1-4.209.895 3.04 3.04 0 0 1 4.209-.895z" fill="#5D6D81" fill-rule="nonzero"/><path d="M43.302 64.508l-10.738 2.928 2.928-10.738 45.896-45.895a2.738 2.738 0 0 1 3.875 0l3.935 3.934a2.74 2.74 0 0 1 0 3.875L43.302 64.508z" fill="#5BAADC"/><path d="M88.49 17.905a1.74 1.74 0 0 0 0-2.461l-3.935-3.934a1.738 1.738 0 0 0-2.46 0L36.387 57.218l-2.398 8.794 8.794-2.398L88.49 17.905zM31.14 68.86l3.458-12.682.188-.188L80.68 10.097a3.738 3.738 0 0 1 5.29 0l3.935 3.933a3.74 3.74 0 0 1 0 5.289L43.82 65.403 31.14 68.86z" fill="#5D6D81" fill-rule="nonzero"/><path fill="#FBD86A" d="M80.086 27.436l-7.522-7.522 3.762-3.76 7.52 7.522z"/><path d="M80.086 26.022l2.346-2.346-6.107-6.108-2.347 2.346 6.108 6.108zm-8.936-6.108l5.176-5.174 8.934 8.936-5.174 5.174-8.936-8.936zM34.934 56.861l1.414-1.414 8.205 8.205-1.414 1.414zm-3.077 9.868a1 1 0 1 1 1.414 1.414l-2.051 2.051a1 1 0 0 1-1.414-1.414l2.051-2.051z" fill="#5D6D81" fill-rule="nonzero"/></g></svg>